<svg width="100" height="124" viewBox="0 0 100 124" fill="none" xmlns="http://www.w3.org/2000/svg">
<rect x="0.950684" width="98.135" height="98.135" rx="23.7423" fill="url(#paint0_linear_0_1)"/>
<path d="M57.5798 68.8493L55.1862 73.875L68.2685 80.1057L70.6621 75.08L57.5798 68.8493Z" fill="white"/>
<path d="M65.3202 58.0374L64.7113 58.5256C63.2654 59.6791 62.1554 61.1994 61.4969 62.928C60.8385 64.6565 60.6557 66.5301 60.9677 68.3533L69.7736 72.5472L69.5867 71.482C69.5812 71.4509 69.5774 71.4197 69.575 71.3885C69.4714 70.0386 69.8968 68.7013 70.7612 67.6593L78.4058 58.4088C79.7059 56.5822 80.3974 54.3923 80.3822 52.1503L77.4229 33.4833C76.8886 33.7165 76.4382 34.107 76.1316 34.6028C75.8251 35.0986 75.677 35.6761 75.7071 36.2582L75.7079 36.2829L75.9119 44.6411C76.3077 44.7388 76.6925 44.8764 77.0605 45.0519C77.2885 45.1604 77.464 45.3551 77.5484 45.5931C77.6328 45.8311 77.6193 46.0928 77.5107 46.3208L72.6955 56.432C72.6417 56.5449 72.5663 56.6461 72.4734 56.7299C72.3805 56.8136 72.272 56.8782 72.1542 56.92C72.0363 56.9618 71.9114 56.98 71.7865 56.9736C71.6616 56.9671 71.5392 56.9361 71.4263 56.8823C71.3134 56.8286 71.2122 56.7531 71.1285 56.6602C71.0448 56.5673 70.9801 56.4589 70.9383 56.341C70.8965 56.2231 70.8783 56.0982 70.8848 55.9733C70.8913 55.8484 70.9223 55.7261 70.976 55.6131L75.3344 46.4622C74.4295 46.2699 73.4863 46.3877 72.6564 46.7965C71.8266 47.2054 71.1585 47.8815 70.7595 48.7161L67.8299 54.8671C67.2416 56.0986 66.3838 57.1821 65.3202 58.0374Z" fill="white"/>
<path d="M42.4575 68.8493L29.3749 75.0795L31.7683 80.1054L44.8509 73.8751L42.4575 68.8493Z" fill="white"/>
<path d="M29.2759 67.6592C30.1403 68.7012 30.5657 70.0385 30.4622 71.3884C30.4597 71.4195 30.4559 71.4508 30.4505 71.4818L30.2636 72.547L39.0695 68.3531C39.3815 66.5299 39.1987 64.6564 38.5402 62.9279C37.8818 61.1993 36.7717 59.679 35.3258 58.5254L34.717 58.0372C33.6535 57.1822 32.7958 56.0991 32.2074 54.8679L29.2778 48.7169C28.8788 47.8823 28.2107 47.2062 27.3808 46.7974C26.551 46.3885 25.6078 46.2708 24.7029 46.463L29.0613 55.614C29.1698 55.842 29.1834 56.1038 29.099 56.3418C29.0145 56.5798 28.839 56.7746 28.611 56.8831C28.3829 56.9917 28.1211 57.0053 27.8831 56.9208C27.6451 56.8364 27.4504 56.6609 27.3418 56.4328L22.5265 46.3216C22.418 46.0937 22.4044 45.8319 22.4889 45.5939C22.5733 45.356 22.7488 45.1613 22.9768 45.0527C23.3447 44.8772 23.7296 44.7395 24.1254 44.6419L24.3294 36.2838L24.3302 36.259C24.3603 35.6769 24.2122 35.0994 23.9057 34.6036C23.5991 34.1078 23.1487 33.7173 22.6144 33.4841L19.6552 52.1501C19.64 54.3921 20.3315 56.582 21.6316 58.4086L29.2759 67.6592ZM49.8936 54.4036C49.9343 54.4166 49.9758 54.4271 50.0178 54.4351C50.0588 54.4274 50.0993 54.4172 50.1391 54.4046C59.7645 50.4942 68.599 42.0846 66.6619 32.0923C66.196 29.7858 65.158 27.8511 63.6589 26.4974C62.1772 25.1584 60.245 24.4274 58.248 24.4504C55.8479 24.4504 53.1954 25.4548 50.5774 27.355C50.413 27.4744 50.2148 27.5381 50.0117 27.5368C49.8085 27.5354 49.6112 27.4692 49.4484 27.3477C46.7918 25.3658 44.1995 24.361 41.7429 24.361C37.4853 24.361 34.2786 27.3205 33.375 32.0845C31.9769 39.3726 36.5427 49.0957 49.8936 54.4036ZM37.6404 34.3424C38.3666 30.5131 41.1112 28.0375 44.632 28.0375C46.3959 28.0375 48.208 28.6616 50.0269 29.8943C51.8232 28.7154 53.6609 28.0957 55.3761 28.0957C58.8754 28.0957 61.6305 30.5441 62.395 34.3336L62.3965 34.3404C63.4302 39.6659 60.2043 46.7688 50.6674 50.6328C50.6486 50.6403 50.6296 50.6473 50.6106 50.6536C50.229 50.7962 49.8087 50.7962 49.4271 50.6536C49.4102 50.6481 49.3933 50.6419 49.3765 50.6352C39.8356 46.85 36.6066 39.7248 37.6404 34.3424Z" fill="white"/>
<path d="M50.0171 48.8411C56.1382 46.3392 61.7473 41.0105 60.527 34.7074C59.9401 31.8036 57.9663 30.0001 55.3754 30.0001C53.8835 30.0001 52.2242 30.632 50.5771 31.8275C50.4128 31.9469 50.2145 32.0106 50.0114 32.0092C49.8083 32.0079 49.6109 31.9417 49.4481 31.8202C47.8012 30.5918 46.1355 29.9418 44.6318 29.9418C42.0297 29.9418 40.0674 31.7646 39.5108 34.6993C38.6272 39.3022 41.5358 45.4521 50.0171 48.8411Z" fill="white"/>
<path d="M20.6682 109.33H23.6068L30.2186 123H27.3063L26.213 120.7H18.2282L17.1699 123H14.2488L20.6682 109.33ZM25.1198 118.417L22.1637 112.208L19.2864 118.417H25.1198ZM30.5947 112.671H33.5945L36.2794 118.881L37.0665 120.621L38.0286 118.365L35.4748 112.671H37.9936L39.2442 115.732L40.4949 112.671H43.0136L40.4511 118.365L41.4219 120.621L42.209 118.881L44.894 112.671H47.8938L43.0049 123H40.1888L39.2442 121.006L38.2997 123H35.4835L30.5947 112.671ZM49.2144 119.747C49.2144 119.251 49.3222 118.799 49.538 118.391C49.7537 117.983 50.0773 117.633 50.5087 117.341C50.9402 117.044 51.4766 116.817 52.118 116.659C52.7652 116.496 53.5173 116.414 54.3744 116.414C55.0099 116.414 55.6775 116.461 56.3771 116.554C57.0826 116.648 57.8085 116.791 58.5548 116.983C58.5257 116.656 58.4266 116.356 58.2575 116.082C58.0884 115.802 57.8523 115.563 57.5491 115.365C57.2517 115.161 56.8902 115.003 56.4646 114.893C56.0448 114.782 55.5667 114.727 55.0303 114.727C54.7388 114.727 54.4181 114.744 54.0683 114.779C53.7184 114.814 53.3569 114.866 52.9838 114.936C52.6106 115.006 52.2404 115.094 51.8731 115.199C51.5116 115.304 51.1734 115.429 50.8586 115.575L50.0715 113.45C50.4621 113.31 50.879 113.181 51.3221 113.065C51.771 112.948 52.2287 112.849 52.6952 112.767C53.1616 112.68 53.6281 112.613 54.0945 112.566C54.5609 112.52 55.0128 112.496 55.4501 112.496C57.38 112.496 58.8143 112.989 59.753 113.974C60.6917 114.96 61.1611 116.47 61.1611 118.505V123H58.5723V122.029C58.3041 122.187 58.0097 122.335 57.689 122.475C57.3742 122.615 57.0302 122.738 56.657 122.843C56.2839 122.948 55.8816 123.029 55.4501 123.087C55.0245 123.152 54.5726 123.184 54.0945 123.184C53.2899 123.184 52.5815 123.096 51.9693 122.921C51.3629 122.746 50.8557 122.504 50.4475 122.195C50.0394 121.886 49.7304 121.525 49.5205 121.111C49.3164 120.691 49.2144 120.236 49.2144 119.747ZM51.943 119.659C51.943 119.828 51.9868 119.991 52.0742 120.149C52.1617 120.3 52.3016 120.437 52.494 120.56C52.6864 120.677 52.9313 120.773 53.2287 120.849C53.5319 120.919 53.8963 120.953 54.3219 120.953C54.7767 120.953 55.2169 120.913 55.6425 120.831C56.0681 120.749 56.4646 120.642 56.8319 120.507C57.1992 120.373 57.5316 120.219 57.8289 120.044C58.1263 119.869 58.3741 119.688 58.5723 119.502V119.047C58.1759 118.936 57.7823 118.843 57.3917 118.767C57.0068 118.691 56.6366 118.633 56.2809 118.592C55.9311 118.545 55.5988 118.513 55.2839 118.496C54.9749 118.478 54.7038 118.47 54.4706 118.47C53.9866 118.47 53.5843 118.502 53.2637 118.566C52.943 118.63 52.6835 118.717 52.4853 118.828C52.287 118.933 52.1471 119.059 52.0655 119.204C51.9839 119.35 51.943 119.502 51.943 119.659ZM64.5894 112.68H67.1782V114.167C67.7495 113.741 68.353 113.374 68.9885 113.065C69.6241 112.756 70.2567 112.52 70.8864 112.356L71.6472 114.727C70.6502 114.826 69.7727 115.05 69.0148 115.4C68.2626 115.744 67.6504 116.231 67.1782 116.86V123H64.5894V112.68ZM73.0903 117.805C73.0903 117.105 73.2331 116.438 73.5188 115.802C73.8045 115.161 74.2156 114.595 74.752 114.106C75.2884 113.616 75.9443 113.225 76.7198 112.934C77.5011 112.642 78.3873 112.496 79.3785 112.496C80.3638 112.496 81.2501 112.645 82.0372 112.942C82.8302 113.234 83.5007 113.636 84.0487 114.149C84.6026 114.662 85.0253 115.266 85.3169 115.96C85.6142 116.653 85.7629 117.397 85.7629 118.19C85.7629 118.289 85.76 118.397 85.7541 118.513C85.7541 118.624 85.7483 118.726 85.7367 118.82H75.9764C76.0872 119.129 76.265 119.411 76.5099 119.668C76.7606 119.924 77.0725 120.146 77.4457 120.333C77.8188 120.519 78.2503 120.665 78.7401 120.77C79.2298 120.869 79.7721 120.919 80.3668 120.919C80.9615 120.919 81.5533 120.857 82.1422 120.735C82.731 120.607 83.2937 120.446 83.8301 120.254L84.7047 122.23C84.3665 122.388 84.0225 122.528 83.6727 122.65C83.3287 122.767 82.9672 122.866 82.5882 122.948C82.215 123.023 81.8215 123.082 81.4075 123.122C80.9994 123.163 80.5679 123.184 80.1131 123.184C78.9529 123.184 77.9354 123.044 77.0609 122.764C76.1863 122.484 75.4546 122.102 74.8657 121.618C74.2768 121.134 73.8337 120.566 73.5363 119.913C73.239 119.26 73.0903 118.557 73.0903 117.805ZM83.0167 116.799C82.9234 116.514 82.7777 116.248 82.5794 116.003C82.387 115.753 82.1451 115.537 81.8535 115.356C81.562 115.17 81.2238 115.024 80.839 114.919C80.4542 114.814 80.0315 114.761 79.5709 114.761C79.0811 114.761 78.6351 114.817 78.2328 114.928C77.8305 115.038 77.4777 115.187 77.1746 115.374C76.8714 115.56 76.6177 115.776 76.4137 116.021C76.2154 116.266 76.0697 116.525 75.9764 116.799H83.0167Z" fill="white"/>
<defs>
<linearGradient id="paint0_linear_0_1" x1="99.0857" y1="84.2853" x2="-4.19349" y2="11.4755" gradientUnits="userSpaceOnUse">
<stop stop-color="#496BF6"/>
<stop offset="1" stop-color="#FA3E40"/>
</linearGradient>
</defs>
</svg>