<?xml version="1.0" encoding="UTF-8"?><svg id="Layer_1" xmlns="http://www.w3.org/2000/svg" viewBox="0 0 512 340"><defs><style>.cls-1{fill:#ffd403;}.cls-2{fill-rule:evenodd;}</style></defs><rect class="cls-1" width="512" height="340"/><path class="cls-2" d="M378.09,217.91c-12.27,0-37.43-3.1-37.43-47.68s25.16-47.68,37.43-47.68,37.43,3.1,37.43,47.68-25.16,47.68-37.43,47.68M378.09,137.29c-14.03,0-15.98,12.97-15.98,32.95s1.95,32.96,15.98,32.96,15.99-13.37,15.99-32.96-1.96-32.95-15.99-32.95M327.28,140.66c-.33.89-1.28,1.36-2.2,1.1-2.63-.73-8.12-2.04-13.82-2.04-17.4,0-23.26,13.19-23.26,30.52s5.85,30.69,23.26,30.69c5.7,0,11.2-1.29,13.82-2.04.92-.25,1.86.22,2.2,1.09l3.96,10.01c.35.89-.04,1.88-.89,2.29-3.51,1.71-12.78,5.64-24.3,5.64-31.1,0-39.39-23.45-39.39-47.68s8.3-47.68,39.39-47.68c11.54,0,20.81,3.93,24.3,5.64.86.41,1.24,1.41.9,2.29l-3.97,10.16ZM215.91,217.91c-12.27,0-37.43-3.1-37.43-47.68s25.16-47.68,37.43-47.68,37.43,3.1,37.43,47.68c0,44.58-25.15,47.68-37.43,47.68M215.91,137.29c-14.02,0-15.98,12.97-15.98,32.95s1.96,32.96,15.98,32.96,15.99-13.37,15.99-32.96-1.97-32.95-15.99-32.95M134.35,183.56c-8.08,0-12.37-.1-14.65-.2-1.16-.05-2.12.86-2.12,2.01v29.99c0,1.38-1.14,2.52-2.55,2.52h-16.18c-1.4,0-2.54-1.14-2.54-2.52v-89.48c0-1.21.97-2.22,2.21-2.26,0,0,21.05-.76,35.84-1.06,19.35-.39,30.96,12.94,30.96,30.5s-11.61,30.5-30.96,30.5M128.73,138.11c-4.77,0-7.59.05-9.19.1-1.11.03-1.97.92-1.97,2.01v25.66c0,1.09.87,1.98,1.97,2.02,1.6.05,4.42.11,9.19.11,11.66,0,18.17-4.74,18.17-14.95s-6.51-14.95-18.17-14.95"/></svg>